<svg id="Multicolor" xmlns="http://www.w3.org/2000/svg" viewBox="0 0 100 112"><defs><style>.cls-1{fill:#e8f4fa;}.cls-2,.cls-31{fill:#fff;}.cls-12,.cls-13,.cls-15,.cls-16,.cls-17,.cls-18,.cls-19,.cls-2,.cls-20,.cls-21,.cls-22,.cls-32,.cls-5,.cls-7,.cls-9{stroke:#191816;}.cls-12,.cls-13,.cls-15,.cls-16,.cls-17,.cls-18,.cls-19,.cls-2,.cls-20,.cls-21,.cls-22,.cls-5,.cls-7,.cls-9{stroke-linejoin:round;}.cls-3,.cls-7{fill:#d18660;}.cls-4{fill:#bd704a;}.cls-5{fill:none;}.cls-12,.cls-15,.cls-16,.cls-17,.cls-18,.cls-19,.cls-20,.cls-21,.cls-22,.cls-5,.cls-7,.cls-9{stroke-linecap:round;}.cls-20,.cls-6{fill:#dea47a;}.cls-11,.cls-8{fill:#191816;}.cls-9{fill:#87898c;}.cls-10,.cls-16{fill:#f0c2a1;}.cls-11{opacity:0.15;}.cls-12,.cls-13{fill:#915e3a;}.cls-14{fill:#bf8256;}.cls-15,.cls-25{fill:#00b8f0;}.cls-17,.cls-32{fill:#ffcebf;}.cls-18{fill:#a86c4d;}.cls-19,.cls-28{fill:#ffe500;}.cls-21{fill:#debb7e;}.cls-22,.cls-23{fill:#f7e5c6;}.cls-24{fill:#f0d5a8;}.cls-26{fill:#009fd9;}.cls-27{fill:#ffb59e;}.cls-29{fill:#fff48c;}.cls-30{fill:#f0f0f0;}.cls-32{stroke-miterlimit:10;}</style></defs><title>02- mail-package-delivery</title><g id="Background"><g id="New_Symbol_1-3" data-name="New Symbol 1"><circle class="cls-1" cx="50" cy="56" r="40"/></g></g><g id="Scene"><path class="cls-2" d="M63.12,6.47A2.53,2.53,0,0,0,60.59,4H39.11a2.52,2.52,0,0,0-2.53,2.52V26.06a2.52,2.52,0,0,0,2.53,2.52h4.64a1,1,0,0,1,1,1.05v2.74a1,1,0,0,0,1.79.74l4.22-4.22a1,1,0,0,1,.74-.31h9a2.53,2.53,0,0,0,2.53-2.52Z"/><polygon class="cls-3" points="27.78 85.91 28.05 80.07 23.99 80.07 23.99 85.91 27.78 85.91"/><polygon class="cls-4" points="27.91 82.98 28.05 80.07 23.99 80.07 23.99 82.98 27.91 82.98"/><polygon class="cls-5" points="27.78 85.91 28.05 80.07 23.99 80.07 23.99 85.91 27.78 85.91"/><polygon class="cls-3" points="32.83 85.91 32.56 80.07 36.62 80.07 36.62 85.91 32.83 85.91"/><polygon class="cls-4" points="32.7 82.98 32.56 80.07 36.62 80.07 36.62 82.98 32.7 82.98"/><polygon class="cls-5" points="32.83 85.91 32.56 80.07 36.62 80.07 36.62 85.91 32.83 85.91"/><path class="cls-6" d="M39.78,59.61a10.11,10.11,0,1,0-20.22,0v1.26h3.79v8.21h13.9V60.87h2.53Z"/><path class="cls-7" d="M30.94,32.24a6.32,6.32,0,0,0-6.32,6.32v1.26c-1.81,0-1.68,3.16.31,3.16h0a6.3,6.3,0,0,0,12.31-1.9V38.56A6.32,6.32,0,0,0,30.94,32.24Z"/><path class="cls-8" d="M29.83,39.82a.79.79,0,1,0,.79.79.79.79,0,0,0-.79-.79Z"/><path class="cls-8" d="M34.57,39.82a.79.79,0,1,0,0,1.58.79.79,0,1,0,0-1.58Z"/><path class="cls-4" d="M29,42.5a.63.63,0,1,1-1.26,0,.63.63,0,1,1,1.26,0Z"/><path class="cls-5" d="M30.94,44.3a1.89,1.89,0,0,0,2.23.21,1.94,1.94,0,0,0,.29-.21"/><path class="cls-9" d="M23.35,41.24h0V34.13h3.16v3.95A3.15,3.15,0,0,1,23.35,41.24Z"/><path class="cls-10" d="M29.67,49.5A10.11,10.11,0,0,0,19.56,59.61v1.26h.18a10.1,10.1,0,0,1,19.86,0h.18V59.61A10.11,10.11,0,0,0,29.67,49.5Z"/><path class="cls-5" d="M39.78,59.61a10.11,10.11,0,1,0-20.22,0v1.26h3.79v8.21h13.9V60.87h2.53Z"/><ellipse class="cls-11" cx="31.11" cy="89.19" rx="10.5" ry="1.57"/><path class="cls-12" d="M26.35,30.34h7.9a3,3,0,0,1,3,3V36a0,0,0,0,1,0,0H23.35a0,0,0,0,1,0,0V33.34A3,3,0,0,1,26.35,30.34Z"/><path class="cls-13" d="M30.3,30.34s-3.79,1.9-3.79,5.06"/><path class="cls-13" d="M30.3,30.34s3.79,1.9,3.79,5.06"/><path class="cls-6" d="M27.68,80.46a1.05,1.05,0,0,0,1.05-1L29,74.77a1.32,1.32,0,0,1,2.63,0l.25,4.69a1.05,1.05,0,0,0,1.05,1H36.2a1,1,0,0,0,1-1V67.82H23.35V79.41a1,1,0,0,0,1,1Z"/><rect class="cls-14" x="23.35" y="69.08" width="13.9" height="2.53"/><path class="cls-5" d="M29,74.77a1.32,1.32,0,0,1,2.63,0l.25,4.69a1.05,1.05,0,0,0,1.05,1H36.2a1,1,0,0,0,1-1V67.82H23.35V79.41a1,1,0,0,0,1,1h3.28a1.05,1.05,0,0,0,1.05-1Z"/><path class="cls-9" d="M39.15,88.67c0-2.26-2.21-3.16-4.17-3.16H33.25a1,1,0,0,0-1,1v1.06a1,1,0,0,0,1,1Z"/><path class="cls-9" d="M30.3,88.67c0-2.26-2.21-3.16-4.16-3.16H24.4a1,1,0,0,0-1,1v1.06a1,1,0,0,0,1,1Z"/><path class="cls-7" d="M23.35,72.24a1.9,1.9,0,1,1-3.79,0V60.87h3.79Z"/><line class="cls-15" x1="37.25" y1="60.87" x2="37.25" y2="57.08"/><line class="cls-15" x1="23.35" y1="60.87" x2="23.35" y2="57.08"/><path class="cls-7" d="M29.67,49.5a10.12,10.12,0,0,0-2.82.41l3.45,5.91,3.24-5.55A10.16,10.16,0,0,0,29.67,49.5Z"/><path class="cls-16" d="M35.3,51.21a10.23,10.23,0,0,0-1.76-.94L30.3,55.82a10.71,10.71,0,0,1,5.08-2.43.52.52,0,0,0,.41-.69Z"/><path class="cls-16" d="M30.3,55.82l-3.45-5.91a9.45,9.45,0,0,0-1.26.45l-.78,2.34a.54.54,0,0,0,.42.69A10.68,10.68,0,0,1,30.3,55.82Z"/><line class="cls-17" x1="30.3" y1="55.82" x2="30.3" y2="58.98"/><rect class="cls-18" x="23.35" y="67.19" width="13.9" height="2.53"/><rect class="cls-19" x="28.41" y="67.19" width="3.79" height="2.53"/><path class="cls-20" d="M23.35,36l1.44,1.91a1,1,0,0,0,1.15.38,21.91,21.91,0,0,1,10.61,0,1.05,1.05,0,0,0,1.15-1.56L37.25,36C34.73,34.76,28.41,34.76,23.35,36Z"/><rect class="cls-21" x="32.2" y="57.08" width="12.63" height="12.64" rx="1" ry="1"/><path class="cls-7" d="M44,67a1.89,1.89,0,1,0-3.38,1.71L41.28,70a1.12,1.12,0,0,0,.61.52,1.08,1.08,0,0,0,.81-.06l1.5-.77a1,1,0,0,0,.47-1.41Z"/><path class="cls-22" d="M36.62,57.08h3.79a0,0,0,0,1,0,0v5.19a.5.5,0,0,1-.5.5H37.12a.5.5,0,0,1-.5-.5V57.08A0,0,0,0,1,36.62,57.08Z"/><rect class="cls-23" x="40.37" y="10.89" width="18.95" height="11.37" rx="1" ry="1"/><path class="cls-24" d="M48.77,17.83a2.09,2.09,0,0,0,2.16,0l8.4-5v-.85a1,1,0,0,0-1-1H41.42a1,1,0,0,0-1.05,1v.85Z"/><path class="cls-22" d="M58.28,10.89H41.42a1,1,0,0,0-.64.25l8,4.79a2.09,2.09,0,0,0,2.16,0l8-4.79A1,1,0,0,0,58.28,10.89Z"/><rect class="cls-5" x="40.37" y="10.89" width="18.95" height="11.37" rx="1" ry="1"/><path class="cls-17" d="M61,72.24a1.9,1.9,0,1,0,3.79,0V60.87H61Z"/><ellipse class="cls-11" cx="69.44" cy="89.19" rx="10.5" ry="1.57"/><path class="cls-25" d="M72.49,87l-.66-12.18a1.32,1.32,0,0,0-2.63,0L68.54,87h-5V67.82H77.46V87Z"/><rect class="cls-26" x="63.57" y="69.08" width="13.9" height="2.53" transform="translate(141.03 140.7) rotate(180)"/><path class="cls-5" d="M72.49,87l-.66-12.18a1.32,1.32,0,0,0-2.63,0L68.54,87h-5V67.82H77.46V87Z"/><path class="cls-21" d="M61.67,88.67c0-2.26,2.21-3.16,4.17-3.16h2.78v2.11a1,1,0,0,1-1.05,1Z"/><path class="cls-21" d="M70.52,88.67c0-2.26,2.21-3.16,4.16-3.16h2.78v2.11a1,1,0,0,1-1,1Z"/><path class="cls-17" d="M70.52,32.24a6.32,6.32,0,0,1,6.31,6.32v1.26c1.81,0,1.68,3.16-.31,3.16h0a6.3,6.3,0,0,1-12.31-1.9V38.56A6.32,6.32,0,0,1,70.52,32.24Z"/><path class="cls-8" d="M71.62,39.19a.79.79,0,1,0,.79.79.79.79,0,0,0-.79-.79Z"/><path class="cls-8" d="M66.88,39.19a.79.79,0,1,0,.79.79.79.79,0,0,0-.79-.79Z"/><path class="cls-27" d="M72.41,42.5a.63.63,0,1,0,1.26,0,.63.63,0,0,0-1.26,0Z"/><path class="cls-5" d="M70.83,43.55a2.37,2.37,0,0,1-2.79.26,2.78,2.78,0,0,1-.37-.26"/><path class="cls-28" d="M64.2,37.92c-1.27-.63-.52-3.89.63-4.42L64,32.84A1,1,0,0,1,64.66,31h7.75a5.06,5.06,0,0,1,5,5.06v3.79c-3.79,0-3.71-3-6.94-3.79-.09.73-1,1.43-2.53,1.89A1.86,1.86,0,0,0,66.09,36Z"/><path class="cls-29" d="M77.43,35.45a5.06,5.06,0,0,0-5-4.48H64.66A1,1,0,0,0,64,32.84l.82.66h7.48A7.69,7.69,0,0,1,77.43,35.45Z"/><path class="cls-5" d="M64.2,37.92c-1.27-.63-.52-3.89.63-4.42L64,32.84A1,1,0,0,1,64.66,31h7.75a5.06,5.06,0,0,1,5,5.06v3.79c-3.79,0-3.71-3-6.94-3.79-.09.73-1,1.43-2.53,1.89A1.86,1.86,0,0,0,66.09,36Z"/><path class="cls-30" d="M61,59.61a10.11,10.11,0,1,1,20.21,0v1.26H77.46v8.21H63.57V60.87H61Z"/><path class="cls-31" d="M71.15,49.5A10.11,10.11,0,0,0,61,59.61v1.26h.18a10.1,10.1,0,0,1,19.86,0h.17V59.61A10.11,10.11,0,0,0,71.15,49.5Z"/><path class="cls-5" d="M61,59.61a10.11,10.11,0,1,1,20.21,0v1.26H77.46v8.21H63.57V60.87H61Z"/><line class="cls-15" x1="63.57" y1="60.87" x2="63.57" y2="57.08"/><line class="cls-15" x1="77.46" y1="60.87" x2="77.46" y2="57.08"/><path class="cls-17" d="M70.52,53.29a3.13,3.13,0,0,1-3.13-3.06,10,10,0,0,1,3.76-.73,10.22,10.22,0,0,1,2.48.32A3.14,3.14,0,0,1,70.52,53.29Z"/><path class="cls-32" d="M77.46,60.87v.63a5.68,5.68,0,0,1-5,5.69H71.15a1.9,1.9,0,1,0,0,3.79h1.26c4.18,0,8.84-4,8.84-9.48v-.63Z"/></g></svg>