<svg id="Multicolor" xmlns="http://www.w3.org/2000/svg" viewBox="0 0 100 112"><defs><style>.cls-1{fill:#e8f4fa;}.cls-2,.cls-6{fill:#fff;}.cls-3{fill:#e0e0e0;}.cls-4,.cls-7{fill:none;}.cls-4,.cls-6,.cls-8{stroke:#191816;}.cls-4,.cls-6,.cls-7,.cls-8{stroke-linecap:round;stroke-linejoin:round;}.cls-5{fill:#191816;opacity:0.15;}.cls-7{stroke:#00aed9;}.cls-8{fill:#f0d5a8;}</style></defs><title>02- mail-letter</title><g id="Background"><g id="New_Symbol_1-9" data-name="New Symbol 1"><circle class="cls-1" cx="50" cy="56" r="40"/></g></g><g id="Scene"><path class="cls-2" d="M74.83,67.41l4.13-17a2,2,0,0,0-.41-1.67A2,2,0,0,0,77,48H48.09a2,2,0,0,0-2,1.59L42,66.59a2,2,0,0,0,.41,1.67A2,2,0,0,0,44,69H72.87A2,2,0,0,0,74.83,67.41Z"/><path class="cls-3" d="M78.55,48.74A2,2,0,0,0,77,48H48.09a2,2,0,0,0-2,1.59l-.15.6,11.29,9.22a5.51,5.51,0,0,0,6,.39L79,50.07A2,2,0,0,0,78.55,48.74Z"/><path class="cls-4" d="M74.83,67.41a2,2,0,0,1-2,1.59H44a2,2,0,0,1-1.55-.74A2,2,0,0,1,42,66.59l4.13-17a2,2,0,0,1,2-1.59H77a2,2,0,0,1,1.55.74A2,2,0,0,1,79,50.41Z"/><ellipse class="cls-5" cx="58" cy="76.5" rx="14.5" ry="1.5"/><path class="cls-6" d="M58.39,57.71a4,4,0,0,0,4.32.29l15.51-9.58A2,2,0,0,0,77,48H48.09a2,2,0,0,0-1.15.36Z"/><line class="cls-7" x1="25.5" y1="61" x2="38.96" y2="61"/><line class="cls-7" x1="22.46" y1="66" x2="37.96" y2="66"/><line class="cls-7" x1="18" y1="66" x2="20" y2="66"/><line class="cls-7" x1="15" y1="66" x2="15.5" y2="66"/><line class="cls-7" x1="18" y1="61" x2="18.5" y2="61"/><line class="cls-7" x1="22" y1="56" x2="22.5" y2="56"/><line class="cls-7" x1="26" y1="51" x2="26.5" y2="51"/><line class="cls-7" x1="21" y1="61" x2="23" y2="61"/><line class="cls-7" x1="29.5" y1="56" x2="39.96" y2="56"/><line class="cls-7" x1="25" y1="56" x2="27" y2="56"/><line class="cls-7" x1="33.5" y1="51" x2="41" y2="51"/><line class="cls-7" x1="29" y1="51" x2="31" y2="51"/><line class="cls-8" x1="56.14" y1="55.88" x2="42.41" y2="68.26"/><line class="cls-8" x1="65.06" y1="56.55" x2="74.57" y2="68.05"/></g></svg>