<?xml version="1.0" encoding="utf-8"?>
<!-- Generator: Adobe Illustrator 23.0.3, SVG Export Plug-In . SVG Version: 6.00 Build 0)  -->
<svg version="1.1" id="Multicolor_1_" xmlns="http://www.w3.org/2000/svg" xmlns:xlink="http://www.w3.org/1999/xlink" x="0px"
	 y="0px" viewBox="0 0 100 112" style="enable-background:new 0 0 100 112;" xml:space="preserve">
<style type="text/css">
	.st0{fill:#E9F5FA;}
	.st1{fill:#FCEA5F;stroke:#191816;stroke-linecap:round;stroke-linejoin:round;stroke-miterlimit:10;}
	.st2{opacity:0.15;fill:#191816;enable-background:new    ;}
	.st3{fill:#FCCEC0;}
	.st4{fill:#FDDBD1;}
	.st5{fill:none;stroke:#191816;stroke-linecap:round;stroke-miterlimit:10;}
	.st6{fill:none;stroke:#191816;stroke-linecap:round;stroke-linejoin:round;stroke-miterlimit:10;}
	.st7{fill:#069ED9;stroke:#191816;stroke-linejoin:round;stroke-miterlimit:10;}
	.st8{fill:#22B7EA;}
	.st9{fill:none;stroke:#191816;stroke-linejoin:round;stroke-miterlimit:10;}
	.st10{fill:#FFFFFF;stroke:#191816;stroke-linecap:round;stroke-linejoin:round;stroke-miterlimit:10;}
</style>
<circle class="st0" cx="50" cy="57" r="40"/>
<g>
	<path class="st1" d="M71.2,32.1c0.2-1,1-1.8,2.1-2.1l4.2-1c0.2,0,0.3-0.2,0.3-0.3c0-0.2-0.1-0.3-0.3-0.3l-4.2-1
		c-1-0.2-1.8-1-2.1-2.1l-1-4.1c0-0.2-0.2-0.3-0.3-0.3c-0.2,0-0.3,0.1-0.3,0.3l-1,4.1c-0.2,1-1,1.8-2.1,2.1l-4.1,1
		c-0.2,0-0.3,0.2-0.3,0.3c0,0.2,0.1,0.3,0.3,0.3l4.1,1c1,0.2,1.8,1,2.1,2.1l1,4.2c0,0.2,0.2,0.3,0.3,0.3c0.2,0,0.3-0.1,0.3-0.3
		L71.2,32.1z"/>
	<path class="st1" d="M36.6,29.9l3.2-1.1c0.1,0,0.2-0.2,0.2-0.3c0-0.1-0.1-0.2-0.2-0.3l-2.7-0.9c-0.4-0.1-0.7-0.4-0.8-0.8l-0.9-2.7
		c0-0.1-0.2-0.2-0.3-0.2s-0.2,0.1-0.3,0.2L34,26.6c-0.1,0.4-0.4,0.7-0.8,0.8l-2.7,0.9c-0.1,0-0.2,0.2-0.2,0.3c0,0.1,0.1,0.2,0.2,0.3
		l2.7,0.9c0.4,0.1,0.7,0.4,0.8,0.8l0.9,2.7c0,0.1,0.2,0.2,0.3,0.2s0.2-0.1,0.3-0.2L36.6,29.9z"/>
	<ellipse class="st2" cx="49.8" cy="90" rx="14.9" ry="1.7"/>
	<g>
		<path class="st3" d="M71.2,70.2c-0.3,0-0.6,0.1-0.9,0.2L60,74.6c-0.4,0.2-0.9,0.3-1.3,0.3h-1.1c1.3,0,2.3-1,2.3-2.3
			s-1-2.3-2.3-2.3h-4.4c-3.7,0-2.8-4-9.4-4c-2.3,0-6.3,0-6.3,0V79c1.7,0,3.2-0.1,5.3,0.6l2.5,0.9c2.1,0.8,4.4,1.1,6.6,1.1
			c1.5,0,2.9-0.2,4.3-0.5c0.6,0,15.2-6.2,15.8-6.4c0.9-0.4,1.4-1.2,1.4-2.1C73.5,71.2,72.5,70.2,71.2,70.2z"/>
		<path class="st4" d="M42.9,68.6c6.5,0,5.6,4,9.4,4h4.4c1.1,0,2,0.8,2.2,1.8c0.6-0.4,1-1.1,1-1.9c0-1.3-1-2.3-2.3-2.3h-4.4
			c-3.7,0-2.8-4-9.4-4c-2.3,0-6.3,0-6.3,0v2.4C38.8,68.6,41.3,68.6,42.9,68.6z"/>
		<path class="st4" d="M73.5,72.5c0-1.3-1-2.3-2.3-2.3c-0.3,0-0.6,0.1-0.9,0.2l0,0l0,0l0,0L60,74.6c-0.4,0.2-0.9,0.3-1.3,0.3h-11
			c0,1.2,0.9,2.1,2.1,2.2c10,0.3,10.7-0.1,19.6-4.1c0.3-0.1,0.6-0.2,0.9-0.2c1.1,0,1.9,0.7,2.2,1.7l0,0
			C73.2,73.9,73.5,73.2,73.5,72.5z"/>
		<line class="st5" x1="57.6" y1="74.8" x2="47.9" y2="74.8"/>
		<path class="st6" d="M71.2,70.2c-0.3,0-0.6,0.1-0.9,0.2L60,74.6c-0.4,0.2-0.9,0.3-1.3,0.3h-1.1c1.3,0,2.3-1,2.3-2.3
			s-1-2.3-2.3-2.3h-4.4c-3.7,0-2.8-4-9.4-4c-2.3,0-6.3,0-6.3,0V79c1.7,0,3.2-0.1,5.3,0.6l2.5,0.9c2.1,0.8,4.4,1.1,6.6,1.1
			c1.5,0,2.9-0.2,4.3-0.5c0.6,0,15.2-6.2,15.8-6.4c0.9-0.4,1.4-1.2,1.4-2.1C73.5,71.2,72.5,70.2,71.2,70.2z"/>
		<path class="st7" d="M33.1,81.2H27c-0.6,0-1-0.4-1-1V64.3c0-0.6,0.4-1,1-1h6.1c0.6,0,1,0.4,1,1v15.8
			C34.1,80.7,33.6,81.2,33.1,81.2z"/>
		<path class="st8" d="M34.1,64.5c0-0.6-0.5-1.2-1.2-1.2h-5.8c-0.6,0-1.1,0.5-1.1,1.2v1.7h8.1V64.5z"/>
		<path class="st9" d="M33.1,81.2H27c-0.6,0-1-0.4-1-1V64.3c0-0.6,0.4-1,1-1h6.1c0.6,0,1,0.4,1,1v15.8
			C34.1,80.7,33.6,81.2,33.1,81.2z"/>
		<path class="st10" d="M34.1,80h2.5c0.6,0,1-0.4,1-1V65.5c0-0.6-0.4-1-1-1h-2.5V80z"/>
	</g>
</g>
<g>
	<path class="st1" d="M34.3,37c0.2,0.2,0.2,0.4,0.2,0.7v4c0,0.4-0.2,0.8-0.6,1.3l-3.7,4.6c1.7,0.5,3,1.4,3.9,2.6
		c1,1.2,1.4,2.8,1.4,4.6c0,2.8-0.8,4.9-2.4,6.3c-1.6,1.4-3.8,2.2-6.7,2.2c-1.9,0-3.5-0.3-4.9-1s-2.4-1.6-3.2-2.7
		c-0.7-1.1-1.1-2.3-1.2-3.6c0-0.2,0.1-0.4,0.2-0.6c0.1-0.2,0.3-0.2,0.5-0.2h3.9c0.3,0,0.6,0.1,0.8,0.2c0.2,0.1,0.4,0.4,0.7,0.7
		c0.4,0.4,0.8,0.8,1.3,1c0.4,0.2,1.1,0.4,1.9,0.4c1,0,1.8-0.2,2.5-0.6c0.6-0.4,0.9-1,0.9-1.9c0-0.8-0.3-1.4-0.9-1.9
		c-0.6-0.4-1.4-0.6-2.5-0.6h-2.5c-0.2,0-0.4-0.1-0.6-0.3c-0.2-0.2-0.2-0.4-0.2-0.7V48c0-0.2,0.1-0.5,0.2-0.7
		c0.1-0.2,0.3-0.4,0.5-0.7l3.2-4h-8c-0.2,0-0.4-0.1-0.6-0.3c-0.2-0.2-0.2-0.4-0.2-0.7v-4c0-0.3,0.1-0.5,0.2-0.7
		c0.2-0.2,0.4-0.3,0.6-0.3h14.6C34,36.7,34.2,36.8,34.3,37z"/>
	<path class="st1" d="M56.5,49.8c0,1.5,0,2.6-0.1,3.3c-0.1,3-0.9,5.4-2.4,7.3c-1.5,1.9-3.6,2.8-6.5,2.8c-2.9,0-5.1-0.9-6.5-2.8
		c-1.5-1.9-2.3-4.3-2.4-7.3c0-1.3-0.1-2.4-0.1-3.3c0-0.8,0-2,0.1-3.4c0.1-3,0.9-5.4,2.4-7.3s3.6-2.8,6.5-2.8c2.9,0,5.1,0.9,6.5,2.8
		s2.3,4.3,2.4,7.3C56.5,47.2,56.5,48.3,56.5,49.8z M50,43.5c-0.5-0.8-1.3-1.1-2.4-1.1c-1.1,0-2,0.4-2.4,1.1
		c-0.5,0.8-0.8,1.8-0.8,3.2c0,1.3-0.1,2.4-0.1,3.1c0,0.7,0,1.7,0.1,3.2c0,1.4,0.3,2.4,0.8,3.2c0.5,0.8,1.3,1.1,2.5,1.1
		c1.1,0,2-0.4,2.5-1.1c0.5-0.8,0.8-1.8,0.8-3.2c0-0.7,0.1-1.8,0.1-3.2c0-1.4,0-2.4-0.1-3.1C50.8,45.3,50.5,44.2,50,43.5z"/>
	<path class="st1" d="M67.4,48.5c-0.8,1-2,1.5-3.5,1.5s-2.7-0.5-3.5-1.5c-0.8-1-1.2-2.3-1.3-3.8c0-0.3,0-0.8,0-1.4
		c0-0.6,0-1.1,0-1.5c0.1-1.6,0.5-2.9,1.3-3.8c0.8-1,1.9-1.5,3.5-1.5s2.7,0.5,3.5,1.5c0.8,1,1.2,2.3,1.3,3.8c0,0.7,0.1,1.2,0.1,1.5
		c0,0.3,0,0.7-0.1,1.4C68.7,46.2,68.2,47.5,67.4,48.5z M76.9,36.9c0.2-0.1,0.4-0.2,0.6-0.2H80c0.2,0,0.4,0.1,0.5,0.2
		c0.1,0.1,0.2,0.3,0.2,0.5c0,0.1,0,0.3-0.1,0.4L65.5,62.2c-0.2,0.2-0.3,0.4-0.5,0.5s-0.4,0.2-0.6,0.2h-2.5c-0.2,0-0.4-0.1-0.5-0.2
		s-0.2-0.3-0.2-0.5c0-0.1,0-0.3,0.1-0.4l15.1-24.3C76.5,37.2,76.7,37,76.9,36.9z M64.8,46c0.2-0.3,0.3-0.8,0.3-1.5
		c0-0.6,0.1-1,0.1-1.2c0-0.3,0-0.7-0.1-1.2c0-0.7-0.2-1.2-0.3-1.5c-0.2-0.3-0.5-0.4-0.9-0.4s-0.7,0.1-0.9,0.4
		c-0.2,0.3-0.3,0.8-0.3,1.5c0,0.3,0,0.7,0,1.2c0,0.5,0,0.9,0,1.2c0,0.7,0.2,1.2,0.3,1.5c0.2,0.3,0.5,0.4,0.9,0.4S64.7,46.3,64.8,46z
		 M81.6,61.6c-0.8,1-2,1.5-3.5,1.5c-1.5,0-2.7-0.5-3.5-1.5c-0.8-1-1.2-2.3-1.3-3.8c0-0.3,0-0.8,0-1.4c0-0.6,0-1.1,0-1.5
		c0.1-1.6,0.5-2.9,1.3-3.8c0.8-1,1.9-1.5,3.5-1.5c1.5,0,2.7,0.5,3.5,1.5c0.8,1,1.2,2.3,1.3,3.8c0,0.7,0.1,1.2,0.1,1.5
		c0,0.3,0,0.7-0.1,1.4C82.9,59.3,82.4,60.6,81.6,61.6z M79,59.1c0.2-0.3,0.3-0.8,0.3-1.5c0-0.6,0.1-1,0.1-1.2c0-0.3,0-0.7-0.1-1.2
		c0-0.7-0.2-1.2-0.3-1.5c-0.2-0.3-0.5-0.4-0.9-0.4c-0.4,0-0.7,0.1-0.9,0.4c-0.2,0.3-0.3,0.8-0.3,1.5c0,0.3,0,0.7,0,1.2
		c0,0.5,0,0.9,0,1.2c0,0.7,0.2,1.2,0.3,1.5s0.5,0.4,0.9,0.4C78.6,59.5,78.9,59.4,79,59.1z"/>
</g>
</svg>
