<svg id="Multicolor" xmlns="http://www.w3.org/2000/svg" viewBox="0 0 100 112"><defs><style>.cls-1{fill:#e8f4fa;}.cls-2{fill:#ffe500;}.cls-3{fill:#fffacf;}.cls-11,.cls-13,.cls-14,.cls-4{fill:none;}.cls-11,.cls-13,.cls-14,.cls-4,.cls-5,.cls-8{stroke:#191816;}.cls-14,.cls-4,.cls-8{stroke-linecap:round;}.cls-13,.cls-4,.cls-5,.cls-8{stroke-linejoin:round;}.cls-5{fill:#6dd627;}.cls-6{fill:#c8ffa1;}.cls-7{fill:#191816;opacity:0.15;}.cls-8{fill:#ffec60;}.cls-9{fill:#00b8f0;}.cls-10{fill:#4acfff;}.cls-11,.cls-14{stroke-miterlimit:10;}.cls-12{fill:#fff48c;}</style></defs><title>30- money-protection</title><g id="Background"><g id="New_Symbol_1-2" data-name="New Symbol 1"><circle class="cls-1" cx="50.5" cy="56" r="40"/></g></g><g id="Scene"><path class="cls-2" d="M31.54,73.8a2.07,2.07,0,0,1,2.07-2.07h6.9a2.07,2.07,0,0,1,0,4.14h-6.9A2.07,2.07,0,0,1,31.54,73.8Z"/><path class="cls-3" d="M33.61,71.73h6.9a2.06,2.06,0,0,1,2.07,2.07h-11A2.07,2.07,0,0,1,33.61,71.73Z"/><path class="cls-2" d="M20.5,73.8a2.07,2.07,0,0,1,2.07-2.07h6.9a2.07,2.07,0,0,1,0,4.14h-6.9A2.07,2.07,0,0,1,20.5,73.8Z"/><path class="cls-3" d="M22.57,71.73h6.9a2.06,2.06,0,0,1,2.07,2.07h-11A2.07,2.07,0,0,1,22.57,71.73Z"/><path class="cls-2" d="M21.88,69.66A2.07,2.07,0,0,1,24,67.59h6.9a2.07,2.07,0,0,1,0,4.14H24A2.07,2.07,0,0,1,21.88,69.66Z"/><path class="cls-3" d="M24,67.59h6.9a2.07,2.07,0,0,1,2.07,2.07h-11A2.07,2.07,0,0,1,24,67.59Z"/><path class="cls-2" d="M32.92,69.66A2.07,2.07,0,0,1,35,67.59h6.9a2.07,2.07,0,1,1,0,4.14H35A2.07,2.07,0,0,1,32.92,69.66Z"/><path class="cls-3" d="M35,67.59h6.9A2.07,2.07,0,0,1,44,69.66h-11A2.07,2.07,0,0,1,35,67.59Z"/><path class="cls-4" d="M31.54,73.8a2.07,2.07,0,0,1,2.07-2.07h6.9a2.07,2.07,0,0,1,0,4.14h-6.9A2.07,2.07,0,0,1,31.54,73.8Z"/><path class="cls-4" d="M20.5,73.8a2.07,2.07,0,0,1,2.07-2.07h6.9a2.07,2.07,0,0,1,0,4.14h-6.9A2.07,2.07,0,0,1,20.5,73.8Z"/><path class="cls-4" d="M21.88,69.66A2.07,2.07,0,0,1,24,67.59h6.9a2.07,2.07,0,0,1,0,4.14H24A2.07,2.07,0,0,1,21.88,69.66Z"/><path class="cls-2" d="M21.19,65.52a2.07,2.07,0,0,1,2.07-2.07h6.9a2.07,2.07,0,1,1,0,4.14h-6.9A2.07,2.07,0,0,1,21.19,65.52Z"/><path class="cls-3" d="M23.26,63.45h6.9a2.06,2.06,0,0,1,2.07,2.07h-11A2.07,2.07,0,0,1,23.26,63.45Z"/><path class="cls-4" d="M21.19,65.52a2.07,2.07,0,0,1,2.07-2.07h6.9a2.07,2.07,0,1,1,0,4.14h-6.9A2.07,2.07,0,0,1,21.19,65.52Z"/><path class="cls-4" d="M32.92,69.66A2.07,2.07,0,0,1,35,67.59h6.9a2.07,2.07,0,1,1,0,4.14H35A2.07,2.07,0,0,1,32.92,69.66Z"/><path class="cls-5" d="M41.72,66.51a1.6,1.6,0,0,0-1.14-1,1.55,1.55,0,0,0-1.43.43,14.9,14.9,0,0,1-8.25,3.88A1.59,1.59,0,0,0,29.58,72l1.2,3a1.58,1.58,0,0,0,1.7,1,23.22,23.22,0,0,0,9.26-3.81,2.77,2.77,0,0,0,1-3.27Z"/><path class="cls-6" d="M37.53,71.43a1.18,1.18,0,1,1-1.18-1.18A1.18,1.18,0,0,1,37.53,71.43Z"/><path class="cls-5" d="M40.39,64.16A1.57,1.57,0,0,0,38.93,62a14.85,14.85,0,0,1-8.61-3A1.6,1.6,0,0,0,29,58.66a1.57,1.57,0,0,0-1.07.92l-1.28,3a1.59,1.59,0,0,0,.52,1.89,23.33,23.33,0,0,0,9.29,3.77,2.77,2.77,0,0,0,3-1.66Z"/><path class="cls-6" d="M34,64.73a1.18,1.18,0,1,1-1.68-1.65A1.18,1.18,0,1,1,34,64.73Z"/><ellipse class="cls-7" cx="51.09" cy="85.03" rx="9.2" ry="1.72"/><path class="cls-8" d="M85.78,58A2.75,2.75,0,0,1,87.84,56L92,55a.33.33,0,0,0,.26-.33.35.35,0,0,0-.26-.34l-4.16-1a2.74,2.74,0,0,1-2.06-2.07l-1-4.14a.35.35,0,0,0-.34-.27.33.33,0,0,0-.33.27l-1,4.14a2.75,2.75,0,0,1-2.07,2.07l-4.15,1a.35.35,0,0,0-.27.34A.33.33,0,0,0,77,55l4.15,1A2.77,2.77,0,0,1,83.19,58l1,4.15a.33.33,0,0,0,.33.27.35.35,0,0,0,.34-.27Z"/><path class="cls-2" d="M68.8,73.8a2.06,2.06,0,0,0-2.07-2.07h-6.9a2.07,2.07,0,1,0,0,4.14h6.9A2.07,2.07,0,0,0,68.8,73.8Z"/><path class="cls-3" d="M66.73,71.73h-6.9a2.07,2.07,0,0,0-2.07,2.07h11A2.06,2.06,0,0,0,66.73,71.73Z"/><path class="cls-2" d="M79.84,73.8a2.06,2.06,0,0,0-2.07-2.07h-6.9a2.07,2.07,0,0,0,0,4.14h6.9A2.07,2.07,0,0,0,79.84,73.8Z"/><path class="cls-3" d="M77.77,71.73h-6.9A2.07,2.07,0,0,0,68.8,73.8h11A2.06,2.06,0,0,0,77.77,71.73Z"/><path class="cls-2" d="M78.46,69.66a2.07,2.07,0,0,0-2.07-2.07h-6.9a2.07,2.07,0,1,0,0,4.14h6.9A2.07,2.07,0,0,0,78.46,69.66Z"/><path class="cls-3" d="M76.39,67.59h-6.9a2.07,2.07,0,0,0-2.07,2.07h11A2.07,2.07,0,0,0,76.39,67.59Z"/><path class="cls-2" d="M67.42,69.66a2.07,2.07,0,0,0-2.07-2.07h-6.9a2.07,2.07,0,1,0,0,4.14h6.9A2.07,2.07,0,0,0,67.42,69.66Z"/><path class="cls-3" d="M65.35,67.59h-6.9a2.07,2.07,0,0,0-2.07,2.07h11A2.07,2.07,0,0,0,65.35,67.59Z"/><path class="cls-4" d="M68.8,73.8a2.06,2.06,0,0,0-2.07-2.07h-6.9a2.07,2.07,0,1,0,0,4.14h6.9A2.07,2.07,0,0,0,68.8,73.8Z"/><path class="cls-4" d="M79.84,73.8a2.06,2.06,0,0,0-2.07-2.07h-6.9a2.07,2.07,0,0,0,0,4.14h6.9A2.07,2.07,0,0,0,79.84,73.8Z"/><path class="cls-4" d="M78.46,69.66a2.07,2.07,0,0,0-2.07-2.07h-6.9a2.07,2.07,0,1,0,0,4.14h6.9A2.07,2.07,0,0,0,78.46,69.66Z"/><path class="cls-2" d="M79.15,65.52a2.06,2.06,0,0,0-2.07-2.07h-6.9a2.07,2.07,0,1,0,0,4.14h6.9A2.07,2.07,0,0,0,79.15,65.52Z"/><path class="cls-3" d="M77.08,63.45h-6.9a2.07,2.07,0,0,0-2.07,2.07h11A2.06,2.06,0,0,0,77.08,63.45Z"/><path class="cls-4" d="M79.15,65.52a2.06,2.06,0,0,0-2.07-2.07h-6.9a2.07,2.07,0,1,0,0,4.14h6.9A2.07,2.07,0,0,0,79.15,65.52Z"/><path class="cls-4" d="M67.42,69.66a2.07,2.07,0,0,0-2.07-2.07h-6.9a2.07,2.07,0,1,0,0,4.14h6.9A2.07,2.07,0,0,0,67.42,69.66Z"/><path class="cls-8" d="M23.89,49.64l3.25-1.08a.32.32,0,0,0,.21-.29.31.31,0,0,0-.21-.29l-2.67-.89a1.21,1.21,0,0,1-.77-.77l-.89-2.67a.31.31,0,0,0-.58,0l-.89,2.67a1.23,1.23,0,0,1-.77.77L17.9,48a.3.3,0,0,0-.21.29.31.31,0,0,0,.21.29l2.67.89a1.21,1.21,0,0,1,.77.77l.89,2.67a.31.31,0,0,0,.58,0Z"/><path class="cls-9" d="M52.38,34.57a1.37,1.37,0,0,0-1.65,0,33.18,33.18,0,0,1-15.24,6.32,1.37,1.37,0,0,0-1.19,1.36V54.32A26.9,26.9,0,0,0,51,79.22a1.46,1.46,0,0,0,1,0A26.91,26.91,0,0,0,68.8,54.32V42.25a1.38,1.38,0,0,0-1.18-1.37A33.07,33.07,0,0,1,52.38,34.57Z"/><path class="cls-10" d="M67.62,40.88a33.07,33.07,0,0,1-15.24-6.31,1.37,1.37,0,0,0-1.65,0,33.18,33.18,0,0,1-15.24,6.32,1.37,1.37,0,0,0-1.19,1.36v4.16A1.39,1.39,0,0,1,35.49,45a33.07,33.07,0,0,0,15.24-6.31,1.37,1.37,0,0,1,1.65,0A33.07,33.07,0,0,0,67.62,45a1.38,1.38,0,0,1,1.18,1.37V42.25A1.38,1.38,0,0,0,67.62,40.88Z"/><path class="cls-11" d="M52.38,34.57a1.37,1.37,0,0,0-1.65,0,33.18,33.18,0,0,1-15.24,6.32,1.37,1.37,0,0,0-1.19,1.36V54.32A26.9,26.9,0,0,0,51,79.22a1.46,1.46,0,0,0,1,0A26.91,26.91,0,0,0,68.8,54.32V42.25a1.38,1.38,0,0,0-1.18-1.37A33.07,33.07,0,0,1,52.38,34.57Z"/><path class="cls-2" d="M62.59,57.06a11,11,0,1,1-11-11A11,11,0,0,1,62.59,57.06Z"/><path class="cls-12" d="M51.55,46a11,11,0,0,0-7.8,18.85L59.36,49.26A11,11,0,0,0,51.55,46Z"/><path class="cls-13" d="M62.59,57.06a11,11,0,1,1-11-11A11,11,0,0,1,62.59,57.06Z"/><path class="cls-14" d="M48.75,59.87a2.81,2.81,0,1,0,2.8-2.81,2.8,2.8,0,1,1,2.81-2.8"/><line class="cls-14" x1="51.55" y1="51.46" x2="51.55" y2="49.6"/><line class="cls-14" x1="51.55" y1="64.53" x2="51.55" y2="62.67"/></g></svg>