<?xml version="1.0" encoding="utf-8"?>
<!-- Generator: Adobe Illustrator 23.0.3, SVG Export Plug-In . SVG Version: 6.00 Build 0)  -->
<svg version="1.1" id="Multicolor" xmlns="http://www.w3.org/2000/svg" xmlns:xlink="http://www.w3.org/1999/xlink" x="0px" y="0px"
	 viewBox="0 0 100 112" style="enable-background:new 0 0 100 112;" xml:space="preserve">
<style type="text/css">
	.st0{fill:#FFFFFF;}
	.st1{fill:#E8F4FA;}
	.st2{fill:none;stroke:#191816;stroke-linecap:round;stroke-linejoin:round;}
	.st3{fill:#4AEFF7;}
	.st4{fill:#A6FBFF;}
	.st5{opacity:0.15;fill:#191816;enable-background:new    ;}
	.st6{fill:#4AEFF7;stroke:#191816;stroke-linejoin:round;}
	.st7{fill:#FFDA8F;}
	.st8{fill:#FFBE3D;}
	.st9{fill:#8CA4B8;stroke:#191816;stroke-linejoin:round;}
	.st10{fill:#ADC4D9;}
	.st11{fill:#C0DCEB;}
	.st12{fill:none;stroke:#191816;stroke-linejoin:round;}
	.st13{fill:#F0F0F0;stroke:#191816;stroke-linejoin:round;}
	.st14{fill:#FFDA8F;stroke:#191816;stroke-linecap:round;stroke-linejoin:round;}
	.st15{fill:#E8F4FA;stroke:#191816;stroke-linecap:round;stroke-linejoin:round;}
	.st16{fill:#00B8F0;}
	.st17{fill:#4ACFFF;}
	.st18{fill:#BDBEC0;stroke:#191816;stroke-linecap:round;stroke-linejoin:round;}
	.st19{fill:#614B44;}
	.st20{fill:#947063;}
	.st21{fill:#A86C4D;stroke:#191816;stroke-linecap:round;stroke-linejoin:round;}
</style>
<g id="Background">
	<g id="New_Symbol_39-5">
		<path class="st0" d="M50.3,96c14.3,0,27.5-7.6,34.7-20H15.7C22.9,88.4,36.1,96,50.3,96z"/>
		<path class="st0" d="M13.9,72.5c0.6,1.2,1.2,2.4,1.8,3.5H85c0.7-1.1,1.3-2.3,1.8-3.5H13.9z"/>
		<path class="st1" d="M90.3,56c0-22.1-17.9-40-40-40c-22.1,0-40,17.9-40,40c0,5.7,1.2,11.3,3.6,16.5h72.9
			C89.1,67.3,90.3,61.7,90.3,56z"/>
		<line class="st2" x1="11.3" y1="72.5" x2="89.3" y2="72.5"/>
		<line class="st2" x1="6.8" y1="72.5" x2="9.3" y2="72.5"/>
		<line class="st2" x1="91.3" y1="72.5" x2="93.8" y2="72.5"/>
	</g>
</g>
<g id="Scene">
	<path class="st3" d="M49.3,49.5c-8.6,0-15.5,6.9-15.5,15.5v5.2c0,0.7-0.7,1.3-1.4,1.2c-0.2,0-0.4-0.1-0.6-0.2l-2-1.2
		c-1.4-0.9-3.3-0.4-4.1,1c-0.9,1.4-0.4,3.3,1,4.1l0,0c2,1.2,3.3,2.2,5.7,2.2c3.1,0,5.8-2,6.8-4.9h25.5V65
		C64.8,56.5,57.9,49.5,49.3,49.5z"/>
	<path class="st4" d="M49.3,49.5c-8.6,0-15.5,6.9-15.5,15.5v4c0-8.6,6.9-15.5,15.5-15.5c8.6,0,15.5,6.9,15.5,15.5v-4
		C64.8,56.4,57.9,49.5,49.3,49.5z"/>
	<path class="st2" d="M49.3,49.5c-8.6,0-15.5,6.9-15.5,15.5v5.2c0,0.7-0.7,1.3-1.4,1.2c-0.2,0-0.4-0.1-0.6-0.2l-2-1.2
		c-1.4-0.9-3.3-0.4-4.1,1c-0.9,1.4-0.4,3.3,1,4.1l0,0c2,1.2,3.3,2.2,5.7,2.2c3.1,0,5.8-2,6.8-4.9h25.5V65
		C64.8,56.5,57.9,49.5,49.3,49.5z"/>
	<path class="st5" d="M35.3,78.5c0,0.8-3.1,1.5-7.4,1.5s-6.6-0.7-6.6-1.5s2.2-1.5,6.6-1.5S35.3,77.7,35.3,78.5z"/>
	<path class="st6" d="M50.6,47.5h-2.5c-2.3,0-4.3,1.9-4.3,4.3s1.9,4.3,4.3,4.3h2.5c2.3,0,4.3-1.9,4.3-4.3S52.9,47.5,50.6,47.5z"/>
	<line class="st2" x1="39.3" y1="72.5" x2="39.3" y2="63.5"/>
	<line class="st2" x1="59.3" y1="72.5" x2="59.3" y2="63.5"/>
	<path class="st7" d="M45.8,46v5.6c0,0,0,2.4,3.5,2.4s3.5-2.4,3.5-2.4V46H45.8z"/>
	<path class="st8" d="M45.8,49.1c0,0.1,0.1,2.4,3.5,2.4s3.5-2.3,3.5-2.4V46h-7V49.1z"/>
	<path class="st2" d="M45.8,46v5.6c0,0,0,2.4,3.5,2.4s3.5-2.4,3.5-2.4V46H45.8z"/>
	<path class="st5" d="M77.3,84.5c0,0.8-7.3,1.5-17.5,1.5s-15.5-0.7-15.5-1.5S49.6,83,59.8,83S77.3,83.7,77.3,84.5z"/>
	<path class="st9" d="M46.3,81h29l0,0v0.5c0,1.1-0.9,2-2,2h-25c-1.1,0-2-0.9-2-2V81L46.3,81z"/>
	<path class="st10" d="M75.3,81h-29l-1.5-13.3c-0.1-0.6,0.1-1.1,0.5-1.6c0.4-0.4,0.9-0.7,1.5-0.7h28c0.6,0,1.1,0.2,1.5,0.7
		c0.4,0.4,0.6,1,0.5,1.6L75.3,81z"/>
	<path class="st11" d="M45.1,69.7c0.1-0.2,0.2-0.4,0.3-0.5c0.4-0.4,0.9-0.7,1.5-0.7h28c0.6,0,1.1,0.2,1.5,0.7
		c0.1,0.2,0.2,0.3,0.3,0.5l0.2-1.9c0.1-0.6-0.1-1.1-0.5-1.6c-0.4-0.4-0.9-0.7-1.5-0.7h-28c-0.6,0-1.1,0.2-1.5,0.7
		c-0.4,0.4-0.6,1-0.5,1.6L45.1,69.7z"/>
	<path class="st12" d="M75.3,81h-29l-1.5-13.3c-0.1-0.6,0.1-1.1,0.5-1.6c0.4-0.4,0.9-0.7,1.5-0.7h28c0.6,0,1.1,0.2,1.5,0.7
		c0.4,0.4,0.6,1,0.5,1.6L75.3,81z"/>
	<path class="st13" d="M62.5,73.4c0-0.5,0.3-1,0.7-1.3c-0.3-0.4-0.7-0.7-1.2-0.7c-0.5,0-1,0.3-1.3,0.3s-0.7-0.3-1.1-0.3
		c-0.6,0-1.1,0.3-1.4,0.8c-0.5,1.1-0.3,2.4,0.4,3.4c0.3,0.4,0.6,0.9,1.1,0.9s0.6-0.3,1.1-0.3s0.7,0.3,1.1,0.3s0.8-0.4,1-0.8
		c0.2-0.3,0.4-0.6,0.5-1C62.8,74.5,62.5,73.9,62.5,73.4z"/>
	<line class="st2" x1="61.3" y1="69.6" x2="61.9" y2="69"/>
	<path class="st14" d="M28.5,69.5h-1.3c-1.6,0-2.9,1.3-2.9,2.9c0,0,0,0,0,0v2.8c0,0.5,0.4,1,0.9,1.2c1.7,0.5,3.5,0.5,5.2,0
		c0.5-0.1,0.9-0.6,0.9-1.2v-2.8C31.4,70.8,30.1,69.5,28.5,69.5C28.5,69.5,28.5,69.5,28.5,69.5z"/>
	<path class="st0" d="M31.5,78.5h-7.2c-0.6,0-1-0.4-1-1c0-0.1,0-0.1,0-0.2l0.3-1.6c0.3-2.1,2.2-3.7,4.3-3.7l0,0c2.2,0,4,1.6,4.3,3.7
		l0.3,1.6c0.1,0.5-0.3,1.1-0.8,1.1C31.6,78.5,31.6,78.5,31.5,78.5z"/>
	<path class="st1" d="M27.9,74c-2.2,0-4,1.6-4.3,3.7l-0.1,0.4c0.2,0.3,0.5,0.4,0.8,0.4h7.2c0.3,0,0.6-0.2,0.8-0.4l-0.1-0.4
		C31.9,75.6,30.1,74,27.9,74z"/>
	<path class="st2" d="M31.5,78.5h-7.2c-0.6,0-1-0.4-1-1c0-0.1,0-0.1,0-0.2l0.3-1.6c0.3-2.1,2.2-3.7,4.3-3.7l0,0c2.2,0,4,1.6,4.3,3.7
		l0.3,1.6c0.1,0.5-0.3,1.1-0.8,1.1C31.6,78.5,31.6,78.5,31.5,78.5z"/>
	<circle class="st2" cx="27.8" cy="74.4" r="0.5"/>
	<path class="st15" d="M43.8,87h-7c-0.6,0-1-0.4-1-1v-1h9v1C44.8,86.6,44.4,87,43.8,87z"/>
	<path class="st16" d="M44.8,85h-9l1.8-5.3c0.1-0.4,0.6-0.7,1-0.7h3.6c0.4,0,0.9,0.3,1,0.7L44.8,85z"/>
	<path class="st17" d="M42.1,79h-3.6c-0.4,0-0.9,0.3-1,0.7L35.8,85h0.6l6.6-5.4C42.9,79.2,42.5,79,42.1,79z"/>
	<path class="st2" d="M44.8,85h-9l1.8-5.3c0.1-0.4,0.6-0.7,1-0.7h3.6c0.4,0,0.9,0.3,1,0.7L44.8,85z"/>
	<line class="st2" x1="39.8" y1="80.4" x2="40.8" y2="80.4"/>
	<rect x="40.8" y="85" class="st18" width="2" height="2"/>
	<path class="st14" d="M59.3,35.5V33c0-5.5-4.5-10-10-10s-10,4.5-10,10v2.5c-1.1,0-2,0.9-2,2s0.9,2,2,2h0.1c0.9,5.5,6,9.2,11.4,8.3
		c4.3-0.7,7.7-4,8.3-8.3h0.1c1.1,0,2-0.9,2-2S60.4,35.5,59.3,35.5z"/>
	<circle class="st8" cx="43.6" cy="39.8" r="1.3"/>
	<circle class="st8" cx="55.1" cy="39.8" r="1.3"/>
	<path class="st2" d="M46.3,42.3c1.7,1.6,4.3,1.6,6,0"/>
	<path class="st19" d="M60.1,28.1C60,26,58.8,24,57,22.9c-1-2.3-4-3.9-7.7-3.9s-6.7,1.6-7.7,3.9c-1.8,1.1-3,3.1-3,5.2l-0.2,6.7
		c0,0.6,0.4,1.1,1,1.1c0,0,0,0,0,0c0.5,0,0.9-0.4,1-0.9l0.4-2.7c0.3-2,1.9-3.4,3.9-3.5c2.9,1.3,6.3,1.3,9.2,0c2,0.1,3.6,1.5,3.9,3.5
		l0.4,2.7c0.1,0.5,0.5,0.9,1,0.9c0.6,0,1.1-0.5,1.1-1.1c0,0,0,0,0,0L60.1,28.1z"/>
	<path class="st20" d="M60.1,29.8l-0.1-1.6C60,26,58.8,24,57,22.9c-1-2.3-4-3.9-7.7-3.9s-6.7,1.6-7.7,3.9c-1.8,1.1-3,3.1-3,5.2
		l-0.1,1.7c0.5-1.6,1.5-2.9,2.9-3.8c0.1-0.1,0.3-0.2,0.3-0.4c1.1-2.1,4.1-3.7,7.6-3.7s6.5,1.5,7.5,3.7c0.1,0.1,0.2,0.3,0.3,0.4
		C58.6,26.9,59.6,28.2,60.1,29.8z"/>
	<path class="st2" d="M60.1,28.1C60,26,58.8,24,57,22.9c-1-2.3-4-3.9-7.7-3.9s-6.7,1.6-7.7,3.9c-1.8,1.1-3,3.1-3,5.2l-0.2,6.7
		c0,0.6,0.4,1.1,1,1.1c0,0,0,0,0,0c0.5,0,0.9-0.4,1-0.9l0.4-2.7c0.3-2,1.9-3.4,3.9-3.5c2.9,1.3,6.3,1.3,9.2,0c2,0.1,3.6,1.5,3.9,3.5
		l0.4,2.7c0.1,0.5,0.5,0.9,1,0.9c0.6,0,1.1-0.5,1.1-1.1c0,0,0,0,0,0L60.1,28.1z"/>
	<path class="st2" d="M41.7,22.9c-0.4,0.8-0.4,1.7-0.2,2.6"/>
	<path class="st2" d="M57,22.9c0.4,0.8,0.4,1.7,0.2,2.6"/>
	<path class="st21" d="M53.9,29c0.6-0.3,1.1-0.6,1.6-1"/>
	<path class="st21" d="M44.7,29c-0.6-0.3-1.1-0.6-1.6-1"/>
	<circle class="st16" cx="44.8" cy="36" r="4"/>
	<path class="st17" d="M47,32.6c-1.9-1.2-4.3-0.7-5.5,1.2c-1.2,1.9-0.7,4.3,1.2,5.5l0,0L47,32.6L47,32.6z"/>
	<circle class="st16" cx="53.8" cy="36" r="4"/>
	<path class="st17" d="M56,32.6c-0.6-0.4-1.4-0.6-2.2-0.6c-2.2,0-4,1.8-4,4c0,1.3,0.7,2.6,1.8,3.3l0,0L56,32.6z"/>
	<path class="st2" d="M55.3,36c-0.4-0.8-1.3-1.2-2.1-0.9c-0.4,0.2-0.7,0.5-0.9,0.9"/>
	<path class="st2" d="M43.3,36c0.4-0.8,1.3-1.2,2.1-0.9c0.4,0.2,0.7,0.5,0.9,0.9"/>
	<circle class="st2" cx="44.8" cy="36" r="4"/>
	<circle class="st2" cx="53.8" cy="36" r="4"/>
</g>
</svg>
