<?xml version="1.0" encoding="utf-8"?>
<!-- Generator: Adobe Illustrator 23.0.3, SVG Export Plug-In . SVG Version: 6.00 Build 0)  -->
<svg version="1.1" id="Layer_1" xmlns="http://www.w3.org/2000/svg" xmlns:xlink="http://www.w3.org/1999/xlink" x="0px" y="0px"
	 viewBox="0 0 187.5 50" style="enable-background:new 0 0 187.5 50;" xml:space="preserve">
<style type="text/css">
	.st0{clip-path:url(#SVGID_1_);}
	.st1{clip-path:url(#SVGID_2_);fill:#1764B0;}
	.st2{clip-path:url(#SVGID_3_);}
	.st3{clip-path:url(#SVGID_4_);fill:#1764B0;}
</style>
<g>
	<defs>
		<path id="SVGID_13_" d="M158.3,15.7h3.2v12.7l5-5.3h4.1l-5.5,5.9l5.9,7h-4.3l-5.1-6.6h-0.1V36h-3.2V15.7z M149,23.2h3.2v2h0.1
			c0.4-0.8,0.9-1.3,1.5-1.7c0.7-0.4,1.4-0.6,2.3-0.6c0.2,0,0.4,0,0.6,0.1c0.2,0,0.4,0.1,0.6,0.1v3.1c-0.3-0.1-0.5-0.1-0.8-0.2
			c-0.3,0-0.5-0.1-0.8-0.1c-0.8,0-1.4,0.1-1.8,0.4c-0.5,0.3-0.8,0.6-1,1c-0.2,0.4-0.4,0.7-0.5,1.1s-0.1,0.6-0.1,0.8V36H149V23.2z
			 M143.6,30.3h-0.7c-0.4,0-0.9,0-1.5,0.1c-0.6,0-1.1,0.1-1.6,0.3c-0.5,0.1-0.9,0.3-1.2,0.6c-0.3,0.3-0.5,0.6-0.5,1.1
			c0,0.3,0.1,0.6,0.2,0.8c0.1,0.2,0.3,0.4,0.5,0.5c0.2,0.1,0.5,0.2,0.7,0.3c0.3,0.1,0.5,0.1,0.8,0.1c1.1,0,1.9-0.3,2.5-0.8
			c0.5-0.5,0.8-1.2,0.8-2.2V30.3z M143.7,34.3L143.7,34.3c-0.5,0.7-1.1,1.3-1.9,1.6c-0.7,0.3-1.5,0.5-2.4,0.5
			c-0.6,0-1.2-0.1-1.7-0.2c-0.6-0.2-1.1-0.4-1.5-0.7c-0.4-0.3-0.8-0.7-1.1-1.2c-0.3-0.5-0.4-1-0.4-1.7c0-0.7,0.1-1.3,0.4-1.8
			c0.3-0.5,0.6-0.9,1-1.2c0.4-0.3,0.9-0.6,1.5-0.8c0.6-0.2,1.1-0.3,1.7-0.4s1.2-0.2,1.8-0.2c0.6,0,1.2,0,1.7,0h0.8v-0.3
			c0-0.8-0.3-1.4-0.8-1.8c-0.6-0.4-1.3-0.6-2.1-0.6c-0.7,0-1.3,0.1-1.9,0.4c-0.6,0.2-1.1,0.6-1.5,1l-1.7-1.7
			c0.7-0.7,1.6-1.3,2.5-1.6c1-0.3,1.9-0.5,3-0.5c0.9,0,1.7,0.1,2.3,0.3c0.6,0.2,1.1,0.5,1.6,0.8c0.4,0.3,0.7,0.7,1,1.1
			c0.2,0.4,0.4,0.8,0.5,1.3c0.1,0.4,0.2,0.8,0.2,1.2c0,0.4,0,0.8,0,1.1V36h-2.9V34.3z M112.3,17h5.2l5.1,13.3l5.1-13.3h5.1v19h-3.2
			V20.3h-0.1L123.7,36h-2.4l-5.8-15.8h-0.1V36h-3.2V17z M106.8,28.3c0-0.9-0.3-1.7-0.9-2.2c-0.6-0.5-1.4-0.8-2.4-0.8
			c-1,0-1.7,0.3-2.3,0.8c-0.6,0.6-0.9,1.3-1,2.2H106.8z M100.2,30.7c0.1,1,0.5,1.7,1.1,2.3c0.6,0.5,1.4,0.8,2.3,0.8
			c0.8,0,1.5-0.2,2-0.5c0.5-0.3,1-0.7,1.4-1.2l2.3,1.7c-0.8,0.9-1.6,1.6-2.5,2c-0.9,0.4-1.9,0.6-2.9,0.6c-1,0-1.9-0.2-2.7-0.5
			c-0.9-0.3-1.6-0.8-2.2-1.4c-0.6-0.6-1.1-1.3-1.5-2.1c-0.4-0.8-0.6-1.8-0.6-2.8c0-1,0.2-1.9,0.6-2.8c0.4-0.8,0.9-1.5,1.5-2.1
			c0.6-0.6,1.4-1,2.2-1.4c0.9-0.3,1.8-0.5,2.7-0.5c0.9,0,1.7,0.2,2.5,0.5c0.7,0.3,1.4,0.8,1.9,1.4c0.5,0.6,0.9,1.3,1.2,2.2
			c0.3,0.9,0.4,1.9,0.4,3v0.9H100.2z M83.1,23.2h3.5l3.4,9h0.1l3.5-9h3.3L91.8,36h-3.4L83.1,23.2z M78.6,18.8c0-0.5,0.2-1,0.6-1.4
			c0.4-0.4,0.9-0.6,1.5-0.6c0.6,0,1.1,0.2,1.5,0.6c0.4,0.4,0.6,0.8,0.6,1.4c0,0.6-0.2,1-0.6,1.4s-0.9,0.6-1.5,0.6
			c-0.6,0-1.1-0.2-1.5-0.6C78.8,19.7,78.6,19.3,78.6,18.8z M79.1,23.2h3.2V36h-3.2V23.2z M69.7,23.2h3.2v2h0.1
			c0.4-0.8,0.9-1.3,1.5-1.7c0.7-0.4,1.4-0.6,2.3-0.6c0.2,0,0.4,0,0.6,0.1c0.2,0,0.4,0.1,0.6,0.1v3.1c-0.3-0.1-0.5-0.1-0.8-0.2
			c-0.3,0-0.5-0.1-0.8-0.1c-0.8,0-1.4,0.1-1.8,0.4c-0.5,0.3-0.8,0.6-1,1c-0.2,0.4-0.4,0.7-0.5,1.1c-0.1,0.4-0.1,0.6-0.1,0.8V36h-3.2
			V23.2z M56.6,33c1.1,0,2.1-0.1,3-0.4c0.9-0.2,1.8-0.6,2.5-1.1c0.7-0.5,1.2-1.2,1.7-2c0.4-0.8,0.6-1.8,0.6-3c0-1.1-0.2-2.1-0.5-3
			c-0.4-0.8-0.9-1.5-1.5-2c-0.6-0.5-1.4-0.9-2.3-1.1c-0.9-0.2-1.8-0.4-2.9-0.4h-3.1V33H56.6z M50.7,17h7.5c1.3,0,2.5,0.2,3.6,0.6
			c1.2,0.4,2.2,1,3.1,1.8c0.9,0.8,1.6,1.8,2.1,3c0.5,1.2,0.8,2.6,0.8,4.2c0,1.6-0.3,3-0.9,4.2c-0.6,1.2-1.4,2.2-2.4,3
			c-1,0.8-2.1,1.4-3.2,1.7c-1.2,0.4-2.4,0.6-3.5,0.6h-7.1V17z"/>
	</defs>
	<use xlink:href="#SVGID_13_"  style="overflow:visible;fill-rule:evenodd;clip-rule:evenodd;fill:#1764B0;"/>
	<clipPath id="SVGID_1_">
		<use xlink:href="#SVGID_13_"  style="overflow:visible;"/>
	</clipPath>
	<g class="st0">
		<defs>
			<rect id="SVGID_15_" x="-30.9" y="-39.8" width="257" height="147.8"/>
		</defs>
		<use xlink:href="#SVGID_15_"  style="overflow:visible;fill:#1764B0;"/>
		<clipPath id="SVGID_2_">
			<use xlink:href="#SVGID_15_"  style="overflow:visible;"/>
		</clipPath>
		<rect x="48.5" y="13.6" class="st1" width="124.6" height="24.9"/>
	</g>
</g>
<g>
	<defs>
		<path id="SVGID_17_" d="M175.5,20.8c0,0.6,0.1,1.1,0.3,1.7c0.2,0.5,0.5,1,0.9,1.4c0.4,0.4,0.8,0.7,1.4,0.9
			c0.5,0.2,1.1,0.3,1.7,0.3c0.6,0,1.1-0.1,1.7-0.3c0.5-0.2,1-0.5,1.4-0.9s0.7-0.8,0.9-1.4c0.2-0.5,0.3-1.1,0.3-1.7s-0.1-1.1-0.3-1.7
			c-0.2-0.5-0.5-1-0.9-1.4s-0.8-0.7-1.4-0.9c-0.5-0.2-1.1-0.3-1.7-0.3c-0.6,0-1.1,0.1-1.7,0.3c-0.5,0.2-1,0.5-1.4,0.9
			c-0.4,0.4-0.7,0.8-0.9,1.4C175.6,19.7,175.5,20.2,175.5,20.8z M174.8,20.8c0-0.7,0.1-1.3,0.4-1.9c0.3-0.6,0.6-1.1,1.1-1.6
			c0.5-0.5,1-0.8,1.6-1.1c0.6-0.3,1.3-0.4,1.9-0.4s1.3,0.1,1.9,0.4c0.6,0.3,1.1,0.6,1.6,1.1c0.5,0.5,0.8,1,1.1,1.6
			c0.3,0.6,0.4,1.3,0.4,1.9c0,0.7-0.1,1.3-0.4,1.9c-0.3,0.6-0.6,1.1-1.1,1.6c-0.5,0.5-1,0.8-1.6,1.1c-0.6,0.3-1.3,0.4-1.9,0.4
			s-1.3-0.1-1.9-0.4c-0.6-0.3-1.1-0.6-1.6-1.1c-0.5-0.5-0.8-1-1.1-1.6C174.9,22.1,174.8,21.5,174.8,20.8z M178.7,20.5h0.9
			c0.2,0,0.4,0,0.6,0c0.2,0,0.4-0.1,0.5-0.1c0.2-0.1,0.3-0.2,0.4-0.3c0.1-0.1,0.1-0.3,0.1-0.6c0-0.2,0-0.3-0.1-0.5
			c-0.1-0.1-0.2-0.2-0.3-0.3c-0.1-0.1-0.3-0.1-0.4-0.2c-0.2,0-0.3,0-0.5,0h-1.3V20.5z M178.7,23.7H178v-5.8h2.2
			c0.7,0,1.1,0.1,1.4,0.4c0.3,0.3,0.4,0.7,0.4,1.2c0,0.3,0,0.5-0.1,0.7c-0.1,0.2-0.2,0.3-0.3,0.5c-0.1,0.1-0.3,0.2-0.5,0.3
			c-0.2,0.1-0.4,0.1-0.6,0.2l1.7,2.5h-0.8l-1.7-2.5h-1V23.7z"/>
	</defs>
	<use xlink:href="#SVGID_17_"  style="overflow:visible;fill-rule:evenodd;clip-rule:evenodd;fill:#1764B0;"/>
	<clipPath id="SVGID_3_">
		<use xlink:href="#SVGID_17_"  style="overflow:visible;"/>
	</clipPath>
	<g class="st2">
		<defs>
			<rect id="SVGID_19_" x="-30.9" y="-39.8" width="257" height="147.8"/>
		</defs>
		<use xlink:href="#SVGID_19_"  style="overflow:visible;fill:#1764B0;"/>
		<clipPath id="SVGID_4_">
			<use xlink:href="#SVGID_19_"  style="overflow:visible;"/>
		</clipPath>
		<rect x="172.6" y="13.6" class="st3" width="14.3" height="14.3"/>
	</g>
</g>
<g>
	<defs>
		<path id="SVGID_21_" d="M25,34.8c0.1-5.2,3.5-9.3,7.7-9.3C32.7,30.2,29.4,34.1,25,34.8z M13.7,25.5c4.2,0,7.6,4.2,7.7,9.3
			C17,34.1,13.7,30.2,13.7,25.5z M23.3,28.6c-1.3,0-2.3-1-2.3-2.3c0-1.3,1-2.3,2.3-2.3c1.3,0,2.3,1,2.3,2.3
			C25.7,27.5,24.6,28.6,23.3,28.6z M23.4,15.8c4.1,0,7.6,2.7,8.9,6.5H14.5C15.8,18.5,19.3,15.8,23.4,15.8z M23.2,12.9
			c-6.8,0-12.4,5.5-12.4,12.4s5.5,12.4,12.4,12.4s12.4-5.5,12.4-12.4S30,12.9,23.2,12.9z M39.3,17.8c0,6.3-0.9,11.4-2.6,15.1
			c-1.7,3.7-3.6,6.6-5.6,8.5c-2.1,1.9-3.9,3.2-5.6,3.8L23,46l-2.6-0.9c-1.7-0.6-3.6-1.8-5.6-3.8c-2-1.9-3.9-4.8-5.6-8.5
			c-1.7-3.7-2.5-8.8-2.5-15.1v-7.4l0.4,0c0.3,0,0.6,0,1,0c0.8,0,1.8,0,3-0.1s2.4-0.3,3.7-0.6c2-0.5,3.9-1.5,5.6-2.9L23,4.6l2.6,2.2
			c1.7,1.5,3.6,2.4,5.7,2.9c1.3,0.3,2.5,0.5,3.7,0.6c1.2,0.1,2.2,0.1,3,0.1c0.4,0,0.8,0,1,0l0.4,0V17.8z M41.4,8.2
			c0.3,0.3,0.5,0.6,0.7,1c0.2,0.4,0.2,0.8,0.2,1.2v7.4c0,6.9-0.9,12.3-2.8,16.4c-1.9,4.1-4,7.2-6.3,9.4c-2.3,2.2-4.5,3.6-6.4,4.3
			c-2,0.7-3.1,1-3.3,1.1c-0.1,0-0.2,0-0.3,0h-0.5c-0.1,0-0.2,0-0.3,0c-0.2,0-1.3-0.4-3.2-1.1c-2-0.7-4.1-2.1-6.4-4.3
			c-2.3-2.2-4.4-5.3-6.2-9.4s-2.8-9.6-2.8-16.4v-7.4C3.7,10,3.8,9.6,4,9.3c0.2-0.4,0.4-0.7,0.7-1c0.3-0.3,0.6-0.5,1-0.6
			C6,7.5,6.3,7.5,6.7,7.5h0.2c0,0,0.2,0,0.4,0c0.2,0,0.5,0,0.9,0c0.6,0,1.5,0,2.6-0.1c1.1-0.1,2.2-0.3,3.4-0.5
			c1.8-0.4,3.4-1.3,4.9-2.7c1.5-1.3,2.3-2,2.3-2.1c0.2-0.2,0.5-0.3,0.8-0.4c0.3-0.1,0.6-0.1,0.9-0.1c0.3,0,0.6,0,0.8,0.1
			c0.3,0.1,0.5,0.2,0.8,0.4c0.5,0.3,1.5,1.1,2.9,2.3c1.5,1.2,2.9,2,4.4,2.4c1.1,0.3,2.3,0.5,3.4,0.5c1.1,0.1,2,0.1,2.6,0.1
			c0.4,0,0.7,0,0.9,0c0.2,0,0.3,0,0.4,0h0.2c0.4,0,0.7,0.1,1.1,0.2C40.8,7.8,41.1,8,41.4,8.2z"/>
	</defs>
	<use xlink:href="#SVGID_21_"  style="overflow:visible;fill-rule:evenodd;clip-rule:evenodd;fill:#1764B0;"/>
	<clipPath id="SVGID_5_">
		<use xlink:href="#SVGID_21_"  style="overflow:visible;"/>
	</clipPath>
</g>
</svg>
